<svg width="12" height="12" viewBox="0 0 12 12" fill="none" xmlns="http://www.w3.org/2000/svg">
<path d="M1.99956 8.91953C1.99956 8.36609 1.38061 6.98366 2.00003 6.5C2.55131 6.06954 4.31022 6.52407 4.86732 6.24307C5.17116 6.08715 5.57755 6.5 6 6.5C6.42245 6.5 6.69619 7.34407 7.00003 7.5C8.18262 8.09699 10 6.95402 10 8C10 9.02548 8.48473 11 5.99956 11C3.51438 11 1.99956 9.94501 1.99956 8.91953Z" fill="#338EFF"/>
<path d="M1.75 6.839C1.75 4.747 3.54 2.6795 4.797 1.486C5.11983 1.17415 5.55114 0.999847 6 0.999847C6.44886 0.999847 6.88017 1.17415 7.203 1.486C8.4595 2.68 10.25 4.747 10.25 6.839C10.25 8.89 8.6405 11 6 11C3.3595 11 1.75 8.89 1.75 6.839Z" stroke="black" stroke-linecap="round" stroke-linejoin="round"/>
<path d="M2 6.142C2.7325 5.915 4.196 5.842 5.992 6.851C7.785 7.858 9.258 7.499 10 7.0675" stroke="black" stroke-linecap="round" stroke-linejoin="round"/>
</svg>
