<svg width="12" height="12" viewBox="0 0 12 12" fill="none" xmlns="http://www.w3.org/2000/svg">
<g clip-path="url(#clip0_196_210)">
<path d="M8.8685 3.1315L10.75 1.25M8.8685 3.1315C8.6485 2.9115 8.7915 2.0105 8.8485 1.5M8.8685 3.1315C9.0885 3.3515 9.9895 3.2085 10.5 3.1515M3.1315 8.8685L1.25 10.75M3.1315 8.8685C2.9115 8.6485 2.0105 8.7915 1.5 8.8485M3.1315 8.8685C3.3515 9.0885 3.2085 9.9895 3.1515 10.5M8.8685 8.8685L10.75 10.75M8.8685 8.8685C9.0885 8.6485 9.9895 8.7915 10.5 8.8485M8.8685 8.8685C8.6485 9.0885 8.7915 9.9895 8.8485 10.5M3.1315 3.1315L1.25 1.25M3.1315 3.1315C3.3515 2.9115 3.2085 2.0105 3.1515 1.5M3.1315 3.1315C2.9115 3.3515 2.0105 3.2085 1.5 3.1515M6 3.5C5.33696 3.5 4.70107 3.76339 4.23223 4.23223C3.76339 4.70107 3.5 5.33696 3.5 6C3.5 6.66304 3.76339 7.29893 4.23223 7.76777C4.70107 8.23661 5.33696 8.5 6 8.5C6.66304 8.5 7.29893 8.23661 7.76777 7.76777C8.23661 7.29893 8.5 6.66304 8.5 6C8.5 5.33696 8.23661 4.70107 7.76777 4.23223C7.29893 3.76339 6.66304 3.5 6 3.5Z" stroke="black" stroke-linecap="round" stroke-linejoin="round"/>
</g>
<defs>
<clipPath id="clip0_196_210">
<rect width="12" height="12" fill="white"/>
</clipPath>
</defs>
</svg>
