<svg width="12" height="12" viewBox="0 0 12 12" fill="none" xmlns="http://www.w3.org/2000/svg">
<path d="M1 2.9705C2.75 4.6865 5.288 3.951 5.866 2.9705C5.951 2.8265 6 2.659 6 2.4805C6 1.939 5.5525 1.5 5 1.5C4.4475 1.5 4 1.939 4 2.4805M8.5 4.464C8.5 3.6555 9.06 3 9.75 3C10.44 3 11 3.6555 11 4.464C11.003 4.80065 10.9007 5.12983 10.7075 5.4055C9.673 7.0955 4.638 6.458 2 5.928M6.5425 9.9435C6.6455 10.268 6.9235 10.5 7.25 10.5C7.664 10.5 8 10.1265 8 9.6655C8 9.509 7.961 9.362 7.8935 9.237C7.25 7.996 4 7.162 1 9.387M9.5 7.75H10.5" stroke="url(#paint0_linear_196_206)" stroke-linecap="round" stroke-linejoin="round"/>
<defs>
<linearGradient id="paint0_linear_196_206" x1="11.0001" y1="6" x2="1" y2="6" gradientUnits="userSpaceOnUse">
<stop stop-color="#2B2B2B"/>
<stop offset="1" stop-color="#626262"/>
</linearGradient>
</defs>
</svg>
